solid ascii
  facet normal 1.000000e+000 0.000000e+000 -0.000000e+000
    outer loop
      vertex   0.000000e+000 0.000000e+000 0.000000e+000
      vertex   0.000000e+000 1.555750e+001 0.000000e+000
      vertex   0.000000e+000 0.000000e+000 5.918200e+000
    endloop
  endfacet
  facet normal 1.000000e+000 -0.000000e+000 0.000000e+000
    outer loop
      vertex   0.000000e+000 0.000000e+000 5.918200e+000
      vertex   0.000000e+000 1.555750e+001 0.000000e+000
      vertex   0.000000e+000 1.555750e+001 5.918200e+000
    endloop
  endfacet
  facet normal 0.000000e+000 -1.000000e+000 0.000000e+000
    outer loop
      vertex   -2.857500e+001 0.000000e+000 0.000000e+000
      vertex   0.000000e+000 0.000000e+000 0.000000e+000
      vertex   -2.857500e+001 0.000000e+000 5.918200e+000
    endloop
  endfacet
  facet normal 0.000000e+000 -1.000000e+000 0.000000e+000
    outer loop
      vertex   -2.857500e+001 0.000000e+000 5.918200e+000
      vertex   0.000000e+000 0.000000e+000 0.000000e+000
      vertex   0.000000e+000 0.000000e+000 5.918200e+000
    endloop
  endfacet
  facet normal -1.000000e+000 0.000000e+000 0.000000e+000
    outer loop
      vertex   -2.857500e+001 1.555750e+001 0.000000e+000
      vertex   -2.857500e+001 0.000000e+000 0.000000e+000
      vertex   -2.857500e+001 1.555750e+001 5.918200e+000
    endloop
  endfacet
  facet normal -1.000000e+000 -0.000000e+000 0.000000e+000
    outer loop
      vertex   -2.857500e+001 1.555750e+001 5.918200e+000
      vertex   -2.857500e+001 0.000000e+000 0.000000e+000
      vertex   -2.857500e+001 0.000000e+000 5.918200e+000
    endloop
  endfacet
  facet normal 0.000000e+000 1.000000e+000 -0.000000e+000
    outer loop
      vertex   0.000000e+000 1.555750e+001 0.000000e+000
      vertex   -2.857500e+001 1.555750e+001 0.000000e+000
      vertex   0.000000e+000 1.555750e+001 5.918200e+000
    endloop
  endfacet
  facet normal 0.000000e+000 1.000000e+000 -0.000000e+000
    outer loop
      vertex   0.000000e+000 1.555750e+001 5.918200e+000
      vertex   -2.857500e+001 1.555750e+001 0.000000e+000
      vertex   -2.857500e+001 1.555750e+001 5.918200e+000
    endloop
  endfacet
  facet normal 0.000000e+000 0.000000e+000 1.000000e+000
    outer loop
      vertex   0.000000e+000 1.555750e+001 5.918200e+000
      vertex   -2.857500e+001 1.555750e+001 5.918200e+000
      vertex   0.000000e+000 0.000000e+000 5.918200e+000
    endloop
  endfacet
  facet normal 0.000000e+000 0.000000e+000 1.000000e+000
    outer loop
      vertex   0.000000e+000 0.000000e+000 5.918200e+000
      vertex   -2.857500e+001 1.555750e+001 5.918200e+000
      vertex   -2.857500e+001 0.000000e+000 5.918200e+000
    endloop
  endfacet
  facet normal 0.000000e+000 -0.000000e+000 -1.000000e+000
    outer loop
      vertex   -2.857500e+001 1.555750e+001 0.000000e+000
      vertex   0.000000e+000 1.555750e+001 0.000000e+000
      vertex   -2.857500e+001 0.000000e+000 0.000000e+000
    endloop
  endfacet
  facet normal 0.000000e+000 0.000000e+000 -1.000000e+000
    outer loop
      vertex   -2.857500e+001 0.000000e+000 0.000000e+000
      vertex   0.000000e+000 1.555750e+001 0.000000e+000
      vertex   0.000000e+000 0.000000e+000 0.000000e+000
    endloop
  endfacet
endsolid
