solid ascii
  facet normal -1.000000e+000 0.000000e+000 0.000000e+000
    outer loop
      vertex   -2.640838e+001 1.325880e+002 0.000000e+000
      vertex   -2.640838e+001 8.839200e+001 0.000000e+000
      vertex   -2.640838e+001 1.325880e+002 7.086600e+000
    endloop
  endfacet
  facet normal -1.000000e+000 -0.000000e+000 0.000000e+000
    outer loop
      vertex   -2.640838e+001 1.325880e+002 7.086600e+000
      vertex   -2.640838e+001 8.839200e+001 0.000000e+000
      vertex   -2.640838e+001 8.839200e+001 7.086600e+000
    endloop
  endfacet
  facet normal -1.000000e+000 -0.000000e+000 -0.000000e+000
    outer loop
      vertex   -2.640838e+001 8.839200e+001 7.086600e+000
      vertex   -2.640838e+001 8.839200e+001 0.000000e+000
      vertex   -2.640838e+001 4.419600e+001 0.000000e+000
    endloop
  endfacet
  facet normal -1.000000e+000 -0.000000e+000 -0.000000e+000
    outer loop
      vertex   -2.640838e+001 4.419600e+001 7.086600e+000
      vertex   -2.640838e+001 4.419600e+001 0.000000e+000
      vertex   -2.640838e+001 0.000000e+000 0.000000e+000
    endloop
  endfacet
  facet normal -1.000000e+000 0.000000e+000 -0.000000e+000
    outer loop
      vertex   -2.640838e+001 0.000000e+000 7.086600e+000
      vertex   -2.640838e+001 4.419600e+001 7.086600e+000
      vertex   -2.640838e+001 0.000000e+000 0.000000e+000
    endloop
  endfacet
  facet normal -1.000000e+000 -0.000000e+000 0.000000e+000
    outer loop
      vertex   -2.640838e+001 8.839200e+001 7.086600e+000
      vertex   -2.640838e+001 4.419600e+001 0.000000e+000
      vertex   -2.640838e+001 4.419600e+001 7.086600e+000
    endloop
  endfacet
  facet normal 0.000000e+000 -0.000000e+000 1.000000e+000
    outer loop
      vertex   -2.640838e+001 0.000000e+000 7.086600e+000
      vertex   -1.016000e+001 0.000000e+000 7.086600e+000
      vertex   -2.640838e+001 4.419600e+001 7.086600e+000
    endloop
  endfacet
  facet normal -0.000000e+000 0.000000e+000 1.000000e+000
    outer loop
      vertex   -2.640838e+001 4.419600e+001 7.086600e+000
      vertex   -1.016000e+001 0.000000e+000 7.086600e+000
      vertex   -1.016000e+001 4.419600e+001 7.086600e+000
    endloop
  endfacet
  facet normal -0.000000e+000 0.000000e+000 1.000000e+000
    outer loop
      vertex   -2.640838e+001 8.839200e+001 7.086600e+000
      vertex   -1.016000e+001 4.419600e+001 7.086600e+000
      vertex   -1.016000e+001 8.839200e+001 7.086600e+000
    endloop
  endfacet
  facet normal -0.000000e+000 0.000000e+000 1.000000e+000
    outer loop
      vertex   -2.640838e+001 1.325880e+002 7.086600e+000
      vertex   -1.016000e+001 8.839200e+001 7.086600e+000
      vertex   -1.016000e+001 1.325880e+002 7.086600e+000
    endloop
  endfacet
  facet normal -0.000000e+000 0.000000e+000 1.000000e+000
    outer loop
      vertex   -2.640838e+001 1.325880e+002 7.086600e+000
      vertex   -2.640838e+001 8.839200e+001 7.086600e+000
      vertex   -1.016000e+001 8.839200e+001 7.086600e+000
    endloop
  endfacet
  facet normal 0.000000e+000 -0.000000e+000 1.000000e+000
    outer loop
      vertex   -2.640838e+001 4.419600e+001 7.086600e+000
      vertex   -1.016000e+001 4.419600e+001 7.086600e+000
      vertex   -2.640838e+001 8.839200e+001 7.086600e+000
    endloop
  endfacet
  facet normal 1.000000e+000 0.000000e+000 -0.000000e+000
    outer loop
      vertex   0.000000e+000 0.000000e+000 0.000000e+000
      vertex   0.000000e+000 4.419600e+001 0.000000e+000
      vertex   0.000000e+000 0.000000e+000 7.086600e+000
    endloop
  endfacet
  facet normal 1.000000e+000 -0.000000e+000 0.000000e+000
    outer loop
      vertex   0.000000e+000 0.000000e+000 7.086600e+000
      vertex   0.000000e+000 4.419600e+001 0.000000e+000
      vertex   0.000000e+000 4.419600e+001 7.086600e+000
    endloop
  endfacet
  facet normal 1.000000e+000 -0.000000e+000 0.000000e+000
    outer loop
      vertex   0.000000e+000 4.419600e+001 7.086600e+000
      vertex   0.000000e+000 4.419600e+001 0.000000e+000
      vertex   0.000000e+000 8.839200e+001 0.000000e+000
    endloop
  endfacet
  facet normal 1.000000e+000 -0.000000e+000 0.000000e+000
    outer loop
      vertex   0.000000e+000 8.839200e+001 7.086600e+000
      vertex   0.000000e+000 8.839200e+001 0.000000e+000
      vertex   0.000000e+000 1.325880e+002 0.000000e+000
    endloop
  endfacet
  facet normal 1.000000e+000 0.000000e+000 0.000000e+000
    outer loop
      vertex   0.000000e+000 1.325880e+002 7.086600e+000
      vertex   0.000000e+000 8.839200e+001 7.086600e+000
      vertex   0.000000e+000 1.325880e+002 0.000000e+000
    endloop
  endfacet
  facet normal 1.000000e+000 -0.000000e+000 0.000000e+000
    outer loop
      vertex   0.000000e+000 4.419600e+001 7.086600e+000
      vertex   0.000000e+000 8.839200e+001 0.000000e+000
      vertex   0.000000e+000 8.839200e+001 7.086600e+000
    endloop
  endfacet
  facet normal 0.000000e+000 0.000000e+000 1.000000e+000
    outer loop
      vertex   0.000000e+000 1.325880e+002 7.086600e+000
      vertex   -6.349999e+000 1.325880e+002 7.086600e+000
      vertex   0.000000e+000 8.839200e+001 7.086600e+000
    endloop
  endfacet
  facet normal 0.000000e+000 0.000000e+000 1.000000e+000
    outer loop
      vertex   0.000000e+000 8.839200e+001 7.086600e+000
      vertex   -6.349999e+000 1.325880e+002 7.086600e+000
      vertex   -6.349999e+000 8.839200e+001 7.086600e+000
    endloop
  endfacet
  facet normal 0.000000e+000 0.000000e+000 1.000000e+000
    outer loop
      vertex   0.000000e+000 4.419600e+001 7.086600e+000
      vertex   -6.349999e+000 8.839200e+001 7.086600e+000
      vertex   -6.349999e+000 4.419600e+001 7.086600e+000
    endloop
  endfacet
  facet normal 0.000000e+000 0.000000e+000 1.000000e+000
    outer loop
      vertex   0.000000e+000 0.000000e+000 7.086600e+000
      vertex   -6.349999e+000 4.419600e+001 7.086600e+000
      vertex   -6.349999e+000 0.000000e+000 7.086600e+000
    endloop
  endfacet
  facet normal 0.000000e+000 -0.000000e+000 1.000000e+000
    outer loop
      vertex   0.000000e+000 0.000000e+000 7.086600e+000
      vertex   0.000000e+000 4.419600e+001 7.086600e+000
      vertex   -6.349999e+000 4.419600e+001 7.086600e+000
    endloop
  endfacet
  facet normal 0.000000e+000 0.000000e+000 1.000000e+000
    outer loop
      vertex   0.000000e+000 8.839200e+001 7.086600e+000
      vertex   -6.349999e+000 8.839200e+001 7.086600e+000
      vertex   0.000000e+000 4.419600e+001 7.086600e+000
    endloop
  endfacet
  facet normal -1.000000e+000 0.000000e+000 0.000000e+000
    outer loop
      vertex   -1.016000e+001 1.325880e+002 7.086600e+000
      vertex   -1.016000e+001 8.839200e+001 7.086600e+000
      vertex   -1.016000e+001 1.325880e+002 2.540000e+001
    endloop
  endfacet
  facet normal -1.000000e+000 -0.000000e+000 0.000000e+000
    outer loop
      vertex   -1.016000e+001 1.325880e+002 2.540000e+001
      vertex   -1.016000e+001 8.839200e+001 7.086600e+000
      vertex   -1.016000e+001 8.839200e+001 2.540000e+001
    endloop
  endfacet
  facet normal -1.000000e+000 -0.000000e+000 -0.000000e+000
    outer loop
      vertex   -1.016000e+001 8.839200e+001 2.540000e+001
      vertex   -1.016000e+001 8.839200e+001 7.086600e+000
      vertex   -1.016000e+001 4.419600e+001 7.086600e+000
    endloop
  endfacet
  facet normal -1.000000e+000 -0.000000e+000 0.000000e+000
    outer loop
      vertex   -1.016000e+001 4.419600e+001 2.540000e+001
      vertex   -1.016000e+001 4.419600e+001 7.086600e+000
      vertex   -1.016000e+001 0.000000e+000 7.086600e+000
    endloop
  endfacet
  facet normal -1.000000e+000 0.000000e+000 -0.000000e+000
    outer loop
      vertex   -1.016000e+001 0.000000e+000 2.540000e+001
      vertex   -1.016000e+001 4.419600e+001 2.540000e+001
      vertex   -1.016000e+001 0.000000e+000 7.086600e+000
    endloop
  endfacet
  facet normal -1.000000e+000 -0.000000e+000 0.000000e+000
    outer loop
      vertex   -1.016000e+001 8.839200e+001 2.540000e+001
      vertex   -1.016000e+001 4.419600e+001 7.086600e+000
      vertex   -1.016000e+001 4.419600e+001 2.540000e+001
    endloop
  endfacet
  facet normal -0.000000e+000 1.000000e+000 0.000000e+000
    outer loop
      vertex   -2.640838e+001 1.325880e+002 0.000000e+000
      vertex   -1.016000e+001 1.325880e+002 7.086600e+000
      vertex   0.000000e+000 1.325880e+002 0.000000e+000
    endloop
  endfacet
  facet normal 0.000000e+000 1.000000e+000 0.000000e+000
    outer loop
      vertex   -2.640838e+001 1.325880e+002 0.000000e+000
      vertex   -2.640838e+001 1.325880e+002 7.086600e+000
      vertex   -1.016000e+001 1.325880e+002 7.086600e+000
    endloop
  endfacet
  facet normal -0.000000e+000 1.000000e+000 0.000000e+000
    outer loop
      vertex   -1.016000e+001 1.325880e+002 2.540000e+001
      vertex   -6.349999e+000 1.325880e+002 2.540000e+001
      vertex   -1.016000e+001 1.325880e+002 7.086600e+000
    endloop
  endfacet
  facet normal -0.000000e+000 1.000000e+000 0.000000e+000
    outer loop
      vertex   -1.016000e+001 1.325880e+002 7.086600e+000
      vertex   -6.349999e+000 1.325880e+002 2.540000e+001
      vertex   -6.349999e+000 1.325880e+002 7.086600e+000
    endloop
  endfacet
  facet normal 0.000000e+000 1.000000e+000 -0.000000e+000
    outer loop
      vertex   0.000000e+000 1.325880e+002 0.000000e+000
      vertex   -6.349999e+000 1.325880e+002 7.086600e+000
      vertex   0.000000e+000 1.325880e+002 7.086600e+000
    endloop
  endfacet
  facet normal 0.000000e+000 1.000000e+000 -0.000000e+000
    outer loop
      vertex   0.000000e+000 1.325880e+002 0.000000e+000
      vertex   -1.016000e+001 1.325880e+002 7.086600e+000
      vertex   -6.349999e+000 1.325880e+002 7.086600e+000
    endloop
  endfacet
  facet normal 1.000000e+000 0.000000e+000 -0.000000e+000
    outer loop
      vertex   -6.349999e+000 0.000000e+000 7.086600e+000
      vertex   -6.349999e+000 4.419600e+001 7.086600e+000
      vertex   -6.349999e+000 0.000000e+000 2.540000e+001
    endloop
  endfacet
  facet normal 1.000000e+000 -0.000000e+000 0.000000e+000
    outer loop
      vertex   -6.349999e+000 0.000000e+000 2.540000e+001
      vertex   -6.349999e+000 4.419600e+001 7.086600e+000
      vertex   -6.349999e+000 4.419600e+001 2.540000e+001
    endloop
  endfacet
  facet normal 1.000000e+000 -0.000000e+000 0.000000e+000
    outer loop
      vertex   -6.349999e+000 4.419600e+001 2.540000e+001
      vertex   -6.349999e+000 4.419600e+001 7.086600e+000
      vertex   -6.349999e+000 8.839200e+001 7.086600e+000
    endloop
  endfacet
  facet normal 1.000000e+000 -0.000000e+000 0.000000e+000
    outer loop
      vertex   -6.349999e+000 8.839200e+001 2.540000e+001
      vertex   -6.349999e+000 8.839200e+001 7.086600e+000
      vertex   -6.349999e+000 1.325880e+002 7.086600e+000
    endloop
  endfacet
  facet normal 1.000000e+000 0.000000e+000 0.000000e+000
    outer loop
      vertex   -6.349999e+000 1.325880e+002 2.540000e+001
      vertex   -6.349999e+000 8.839200e+001 2.540000e+001
      vertex   -6.349999e+000 1.325880e+002 7.086600e+000
    endloop
  endfacet
  facet normal 1.000000e+000 -0.000000e+000 0.000000e+000
    outer loop
      vertex   -6.349999e+000 4.419600e+001 2.540000e+001
      vertex   -6.349999e+000 8.839200e+001 7.086600e+000
      vertex   -6.349999e+000 8.839200e+001 2.540000e+001
    endloop
  endfacet
  facet normal 0.000000e+000 -1.000000e+000 0.000000e+000
    outer loop
      vertex   -2.640838e+001 0.000000e+000 7.086600e+000
      vertex   -2.640838e+001 0.000000e+000 0.000000e+000
      vertex   -1.016000e+001 0.000000e+000 7.086600e+000
    endloop
  endfacet
  facet normal 0.000000e+000 -1.000000e+000 -0.000000e+000
    outer loop
      vertex   -1.016000e+001 0.000000e+000 7.086600e+000
      vertex   -2.640838e+001 0.000000e+000 0.000000e+000
      vertex   0.000000e+000 0.000000e+000 0.000000e+000
    endloop
  endfacet
  facet normal 0.000000e+000 -1.000000e+000 0.000000e+000
    outer loop
      vertex   -6.349999e+000 0.000000e+000 7.086600e+000
      vertex   0.000000e+000 0.000000e+000 0.000000e+000
      vertex   0.000000e+000 0.000000e+000 7.086600e+000
    endloop
  endfacet
  facet normal -0.000000e+000 -1.000000e+000 -0.000000e+000
    outer loop
      vertex   -6.349999e+000 0.000000e+000 7.086600e+000
      vertex   -1.016000e+001 0.000000e+000 7.086600e+000
      vertex   0.000000e+000 0.000000e+000 0.000000e+000
    endloop
  endfacet
  facet normal -0.000000e+000 -1.000000e+000 -0.000000e+000
    outer loop
      vertex   -6.349999e+000 0.000000e+000 7.086600e+000
      vertex   -1.016000e+001 0.000000e+000 2.540000e+001
      vertex   -1.016000e+001 0.000000e+000 7.086600e+000
    endloop
  endfacet
  facet normal 0.000000e+000 -1.000000e+000 0.000000e+000
    outer loop
      vertex   -6.349999e+000 0.000000e+000 7.086600e+000
      vertex   -6.349999e+000 0.000000e+000 2.540000e+001
      vertex   -1.016000e+001 0.000000e+000 2.540000e+001
    endloop
  endfacet
  facet normal 0.000000e+000 -0.000000e+000 1.000000e+000
    outer loop
      vertex   -1.016000e+001 0.000000e+000 2.540000e+001
      vertex   -6.349999e+000 0.000000e+000 2.540000e+001
      vertex   -1.016000e+001 4.419600e+001 2.540000e+001
    endloop
  endfacet
  facet normal -0.000000e+000 0.000000e+000 1.000000e+000
    outer loop
      vertex   -1.016000e+001 4.419600e+001 2.540000e+001
      vertex   -6.349999e+000 0.000000e+000 2.540000e+001
      vertex   -6.349999e+000 4.419600e+001 2.540000e+001
    endloop
  endfacet
  facet normal -0.000000e+000 0.000000e+000 1.000000e+000
    outer loop
      vertex   -1.016000e+001 8.839200e+001 2.540000e+001
      vertex   -6.349999e+000 4.419600e+001 2.540000e+001
      vertex   -6.349999e+000 8.839200e+001 2.540000e+001
    endloop
  endfacet
  facet normal -0.000000e+000 0.000000e+000 1.000000e+000
    outer loop
      vertex   -1.016000e+001 1.325880e+002 2.540000e+001
      vertex   -6.349999e+000 8.839200e+001 2.540000e+001
      vertex   -6.349999e+000 1.325880e+002 2.540000e+001
    endloop
  endfacet
  facet normal -0.000000e+000 0.000000e+000 1.000000e+000
    outer loop
      vertex   -1.016000e+001 1.325880e+002 2.540000e+001
      vertex   -1.016000e+001 8.839200e+001 2.540000e+001
      vertex   -6.349999e+000 8.839200e+001 2.540000e+001
    endloop
  endfacet
  facet normal 0.000000e+000 -0.000000e+000 1.000000e+000
    outer loop
      vertex   -1.016000e+001 4.419600e+001 2.540000e+001
      vertex   -6.349999e+000 4.419600e+001 2.540000e+001
      vertex   -1.016000e+001 8.839200e+001 2.540000e+001
    endloop
  endfacet
  facet normal 0.000000e+000 0.000000e+000 -1.000000e+000
    outer loop
      vertex   0.000000e+000 0.000000e+000 0.000000e+000
      vertex   -2.640838e+001 0.000000e+000 0.000000e+000
      vertex   0.000000e+000 4.419600e+001 0.000000e+000
    endloop
  endfacet
  facet normal -0.000000e+000 0.000000e+000 -1.000000e+000
    outer loop
      vertex   0.000000e+000 4.419600e+001 0.000000e+000
      vertex   -2.640838e+001 0.000000e+000 0.000000e+000
      vertex   -2.640838e+001 4.419600e+001 0.000000e+000
    endloop
  endfacet
  facet normal -0.000000e+000 0.000000e+000 -1.000000e+000
    outer loop
      vertex   0.000000e+000 8.839200e+001 0.000000e+000
      vertex   -2.640838e+001 4.419600e+001 0.000000e+000
      vertex   -2.640838e+001 8.839200e+001 0.000000e+000
    endloop
  endfacet
  facet normal -0.000000e+000 0.000000e+000 -1.000000e+000
    outer loop
      vertex   0.000000e+000 1.325880e+002 0.000000e+000
      vertex   -2.640838e+001 8.839200e+001 0.000000e+000
      vertex   -2.640838e+001 1.325880e+002 0.000000e+000
    endloop
  endfacet
  facet normal -0.000000e+000 -0.000000e+000 -1.000000e+000
    outer loop
      vertex   0.000000e+000 1.325880e+002 0.000000e+000
      vertex   0.000000e+000 8.839200e+001 0.000000e+000
      vertex   -2.640838e+001 8.839200e+001 0.000000e+000
    endloop
  endfacet
  facet normal 0.000000e+000 0.000000e+000 -1.000000e+000
    outer loop
      vertex   0.000000e+000 4.419600e+001 0.000000e+000
      vertex   -2.640838e+001 4.419600e+001 0.000000e+000
      vertex   0.000000e+000 8.839200e+001 0.000000e+000
    endloop
  endfacet
endsolid
