solid ascii
  facet normal 1.000000e+000 0.000000e+000 -0.000000e+000
    outer loop
      vertex   0.000000e+000 0.000000e+000 0.000000e+000
      vertex   0.000000e+000 8.382000e+000 0.000000e+000
      vertex   0.000000e+000 0.000000e+000 4.572000e+000
    endloop
  endfacet
  facet normal 1.000000e+000 -0.000000e+000 0.000000e+000
    outer loop
      vertex   0.000000e+000 0.000000e+000 4.572000e+000
      vertex   0.000000e+000 8.382000e+000 0.000000e+000
      vertex   0.000000e+000 8.382000e+000 4.572000e+000
    endloop
  endfacet
  facet normal 0.000000e+000 -1.000000e+000 0.000000e+000
    outer loop
      vertex   -3.175000e+001 0.000000e+000 0.000000e+000
      vertex   0.000000e+000 0.000000e+000 0.000000e+000
      vertex   -3.175000e+001 0.000000e+000 4.572000e+000
    endloop
  endfacet
  facet normal 0.000000e+000 -1.000000e+000 0.000000e+000
    outer loop
      vertex   -3.175000e+001 0.000000e+000 4.572000e+000
      vertex   0.000000e+000 0.000000e+000 0.000000e+000
      vertex   0.000000e+000 0.000000e+000 4.572000e+000
    endloop
  endfacet
  facet normal -1.000000e+000 0.000000e+000 0.000000e+000
    outer loop
      vertex   -3.175000e+001 8.382000e+000 0.000000e+000
      vertex   -3.175000e+001 0.000000e+000 0.000000e+000
      vertex   -3.175000e+001 8.382000e+000 4.572000e+000
    endloop
  endfacet
  facet normal -1.000000e+000 -0.000000e+000 0.000000e+000
    outer loop
      vertex   -3.175000e+001 8.382000e+000 4.572000e+000
      vertex   -3.175000e+001 0.000000e+000 0.000000e+000
      vertex   -3.175000e+001 0.000000e+000 4.572000e+000
    endloop
  endfacet
  facet normal 0.000000e+000 1.000000e+000 -0.000000e+000
    outer loop
      vertex   0.000000e+000 8.382000e+000 0.000000e+000
      vertex   -3.175000e+001 8.382000e+000 0.000000e+000
      vertex   0.000000e+000 8.382000e+000 4.572000e+000
    endloop
  endfacet
  facet normal 0.000000e+000 1.000000e+000 -0.000000e+000
    outer loop
      vertex   0.000000e+000 8.382000e+000 4.572000e+000
      vertex   -3.175000e+001 8.382000e+000 0.000000e+000
      vertex   -3.175000e+001 8.382000e+000 4.572000e+000
    endloop
  endfacet
  facet normal 0.000000e+000 0.000000e+000 1.000000e+000
    outer loop
      vertex   0.000000e+000 8.382000e+000 4.572000e+000
      vertex   -3.175000e+001 8.382000e+000 4.572000e+000
      vertex   0.000000e+000 0.000000e+000 4.572000e+000
    endloop
  endfacet
  facet normal 0.000000e+000 0.000000e+000 1.000000e+000
    outer loop
      vertex   0.000000e+000 0.000000e+000 4.572000e+000
      vertex   -3.175000e+001 8.382000e+000 4.572000e+000
      vertex   -3.175000e+001 0.000000e+000 4.572000e+000
    endloop
  endfacet
  facet normal 0.000000e+000 -0.000000e+000 -1.000000e+000
    outer loop
      vertex   -3.175000e+001 8.382000e+000 0.000000e+000
      vertex   0.000000e+000 8.382000e+000 0.000000e+000
      vertex   -3.175000e+001 0.000000e+000 0.000000e+000
    endloop
  endfacet
  facet normal 0.000000e+000 0.000000e+000 -1.000000e+000
    outer loop
      vertex   -3.175000e+001 0.000000e+000 0.000000e+000
      vertex   0.000000e+000 8.382000e+000 0.000000e+000
      vertex   0.000000e+000 0.000000e+000 0.000000e+000
    endloop
  endfacet
endsolid
