solid ascii
  facet normal 0.000000e+000 -1.000000e+000 0.000000e+000
    outer loop
      vertex   -6.654800e+001 1.574800e+001 0.000000e+000
      vertex   -4.114800e+001 1.574800e+001 0.000000e+000
      vertex   -6.654800e+001 1.574800e+001 8.890000e+000
    endloop
  endfacet
  facet normal 0.000000e+000 -1.000000e+000 0.000000e+000
    outer loop
      vertex   -6.654800e+001 1.574800e+001 8.890000e+000
      vertex   -4.114800e+001 1.574800e+001 0.000000e+000
      vertex   -4.114800e+001 1.574800e+001 8.890000e+000
    endloop
  endfacet
  facet normal 0.000000e+000 1.000000e+000 -0.000000e+000
    outer loop
      vertex   -4.114800e+001 2.336800e+001 0.000000e+000
      vertex   -6.654800e+001 2.336800e+001 0.000000e+000
      vertex   -4.114800e+001 2.336800e+001 8.890000e+000
    endloop
  endfacet
  facet normal 0.000000e+000 1.000000e+000 -0.000000e+000
    outer loop
      vertex   -4.114800e+001 2.336800e+001 8.890000e+000
      vertex   -6.654800e+001 2.336800e+001 0.000000e+000
      vertex   -6.654800e+001 2.336800e+001 8.890000e+000
    endloop
  endfacet
  facet normal 1.000000e+000 0.000000e+000 -0.000000e+000
    outer loop
      vertex   -4.114800e+001 1.574800e+001 0.000000e+000
      vertex   -4.114800e+001 2.336800e+001 0.000000e+000
      vertex   -4.114800e+001 1.574800e+001 8.890000e+000
    endloop
  endfacet
  facet normal 1.000000e+000 -0.000000e+000 0.000000e+000
    outer loop
      vertex   -4.114800e+001 1.574800e+001 8.890000e+000
      vertex   -4.114800e+001 2.336800e+001 0.000000e+000
      vertex   -4.114800e+001 2.336800e+001 8.890000e+000
    endloop
  endfacet
  facet normal 0.000000e+000 0.000000e+000 1.000000e+000
    outer loop
      vertex   -4.114800e+001 2.336800e+001 8.890000e+000
      vertex   -6.654800e+001 2.336800e+001 8.890000e+000
      vertex   -4.114800e+001 1.574800e+001 8.890000e+000
    endloop
  endfacet
  facet normal 0.000000e+000 0.000000e+000 1.000000e+000
    outer loop
      vertex   -4.114800e+001 1.574800e+001 8.890000e+000
      vertex   -6.654800e+001 2.336800e+001 8.890000e+000
      vertex   -6.654800e+001 1.574800e+001 8.890000e+000
    endloop
  endfacet
  facet normal -1.000000e+000 0.000000e+000 0.000000e+000
    outer loop
      vertex   -1.270000e+001 3.911600e+001 0.000000e+000
      vertex   -1.270000e+001 0.000000e+000 0.000000e+000
      vertex   -1.270000e+001 3.911600e+001 8.890000e+000
    endloop
  endfacet
  facet normal -1.000000e+000 -0.000000e+000 0.000000e+000
    outer loop
      vertex   -1.270000e+001 3.911600e+001 8.890000e+000
      vertex   -1.270000e+001 0.000000e+000 0.000000e+000
      vertex   -1.270000e+001 0.000000e+000 8.890000e+000
    endloop
  endfacet
  facet normal 0.000000e+000 -0.000000e+000 1.000000e+000
    outer loop
      vertex   -1.270000e+001 0.000000e+000 8.890000e+000
      vertex   0.000000e+000 0.000000e+000 8.890000e+000
      vertex   -1.270000e+001 3.911600e+001 8.890000e+000
    endloop
  endfacet
  facet normal -0.000000e+000 0.000000e+000 1.000000e+000
    outer loop
      vertex   -1.270000e+001 3.911600e+001 8.890000e+000
      vertex   0.000000e+000 0.000000e+000 8.890000e+000
      vertex   0.000000e+000 3.911600e+001 8.890000e+000
    endloop
  endfacet
  facet normal 0.000000e+000 -0.000000e+000 1.000000e+000
    outer loop
      vertex   -6.654800e+001 2.336800e+001 0.000000e+000
      vertex   -4.114800e+001 2.336800e+001 0.000000e+000
      vertex   -6.654800e+001 3.911600e+001 0.000000e+000
    endloop
  endfacet
  facet normal -0.000000e+000 0.000000e+000 1.000000e+000
    outer loop
      vertex   -6.654800e+001 3.911600e+001 0.000000e+000
      vertex   -4.114800e+001 2.336800e+001 0.000000e+000
      vertex   -1.270000e+001 3.911600e+001 0.000000e+000
    endloop
  endfacet
  facet normal 0.000000e+000 0.000000e+000 1.000000e+000
    outer loop
      vertex   -1.270000e+001 3.911600e+001 0.000000e+000
      vertex   -4.114800e+001 2.336800e+001 0.000000e+000
      vertex   -1.270000e+001 0.000000e+000 0.000000e+000
    endloop
  endfacet
  facet normal 0.000000e+000 0.000000e+000 1.000000e+000
    outer loop
      vertex   -1.270000e+001 0.000000e+000 0.000000e+000
      vertex   -4.114800e+001 2.336800e+001 0.000000e+000
      vertex   -4.114800e+001 1.574800e+001 0.000000e+000
    endloop
  endfacet
  facet normal 0.000000e+000 -0.000000e+000 1.000000e+000
    outer loop
      vertex   -6.654800e+001 0.000000e+000 0.000000e+000
      vertex   -4.114800e+001 1.574800e+001 0.000000e+000
      vertex   -6.654800e+001 1.574800e+001 0.000000e+000
    endloop
  endfacet
  facet normal 0.000000e+000 -0.000000e+000 1.000000e+000
    outer loop
      vertex   -6.654800e+001 0.000000e+000 0.000000e+000
      vertex   -1.270000e+001 0.000000e+000 0.000000e+000
      vertex   -4.114800e+001 1.574800e+001 0.000000e+000
    endloop
  endfacet
  facet normal 0.000000e+000 -1.000000e+000 0.000000e+000
    outer loop
      vertex   -6.654800e+001 0.000000e+000 0.000000e+000
      vertex   -3.327400e+001 0.000000e+000 -3.175000e+000
      vertex   -1.270000e+001 0.000000e+000 0.000000e+000
    endloop
  endfacet
  facet normal 0.000000e+000 -1.000000e+000 0.000000e+000
    outer loop
      vertex   -6.654800e+001 0.000000e+000 0.000000e+000
      vertex   -6.654800e+001 0.000000e+000 -3.175000e+000
      vertex   -3.327400e+001 0.000000e+000 -3.175000e+000
    endloop
  endfacet
  facet normal 0.000000e+000 -1.000000e+000 0.000000e+000
    outer loop
      vertex   -3.327400e+001 0.000000e+000 -3.175000e+000
      vertex   0.000000e+000 0.000000e+000 -3.175000e+000
      vertex   -1.270000e+001 0.000000e+000 0.000000e+000
    endloop
  endfacet
  facet normal 0.000000e+000 -1.000000e+000 0.000000e+000
    outer loop
      vertex   -1.270000e+001 0.000000e+000 0.000000e+000
      vertex   0.000000e+000 0.000000e+000 -3.175000e+000
      vertex   0.000000e+000 0.000000e+000 8.890000e+000
    endloop
  endfacet
  facet normal 0.000000e+000 -1.000000e+000 0.000000e+000
    outer loop
      vertex   -1.270000e+001 0.000000e+000 8.890000e+000
      vertex   -1.270000e+001 0.000000e+000 0.000000e+000
      vertex   0.000000e+000 0.000000e+000 8.890000e+000
    endloop
  endfacet
  facet normal 1.000000e+000 0.000000e+000 -0.000000e+000
    outer loop
      vertex   0.000000e+000 0.000000e+000 -3.175000e+000
      vertex   0.000000e+000 3.911600e+001 -3.175000e+000
      vertex   0.000000e+000 0.000000e+000 8.890000e+000
    endloop
  endfacet
  facet normal 1.000000e+000 -0.000000e+000 0.000000e+000
    outer loop
      vertex   0.000000e+000 0.000000e+000 8.890000e+000
      vertex   0.000000e+000 3.911600e+001 -3.175000e+000
      vertex   0.000000e+000 3.911600e+001 8.890000e+000
    endloop
  endfacet
  facet normal -0.000000e+000 1.000000e+000 0.000000e+000
    outer loop
      vertex   -6.654800e+001 3.911600e+001 -3.175000e+000
      vertex   -6.654800e+001 3.911600e+001 0.000000e+000
      vertex   -3.327400e+001 3.911600e+001 -3.175000e+000
    endloop
  endfacet
  facet normal 0.000000e+000 1.000000e+000 -0.000000e+000
    outer loop
      vertex   -3.327400e+001 3.911600e+001 -3.175000e+000
      vertex   -6.654800e+001 3.911600e+001 0.000000e+000
      vertex   -1.270000e+001 3.911600e+001 0.000000e+000
    endloop
  endfacet
  facet normal 0.000000e+000 1.000000e+000 -0.000000e+000
    outer loop
      vertex   0.000000e+000 3.911600e+001 -3.175000e+000
      vertex   -1.270000e+001 3.911600e+001 0.000000e+000
      vertex   0.000000e+000 3.911600e+001 8.890000e+000
    endloop
  endfacet
  facet normal 0.000000e+000 1.000000e+000 -0.000000e+000
    outer loop
      vertex   0.000000e+000 3.911600e+001 -3.175000e+000
      vertex   -3.327400e+001 3.911600e+001 -3.175000e+000
      vertex   -1.270000e+001 3.911600e+001 0.000000e+000
    endloop
  endfacet
  facet normal 0.000000e+000 1.000000e+000 0.000000e+000
    outer loop
      vertex   -1.270000e+001 3.911600e+001 0.000000e+000
      vertex   -1.270000e+001 3.911600e+001 8.890000e+000
      vertex   0.000000e+000 3.911600e+001 8.890000e+000
    endloop
  endfacet
  facet normal -1.000000e+000 0.000000e+000 -0.000000e+000
    outer loop
      vertex   -6.654800e+001 0.000000e+000 0.000000e+000
      vertex   -6.654800e+001 1.574800e+001 0.000000e+000
      vertex   -6.654800e+001 0.000000e+000 -3.175000e+000
    endloop
  endfacet
  facet normal -1.000000e+000 0.000000e+000 0.000000e+000
    outer loop
      vertex   -6.654800e+001 0.000000e+000 -3.175000e+000
      vertex   -6.654800e+001 1.574800e+001 0.000000e+000
      vertex   -6.654800e+001 2.336800e+001 0.000000e+000
    endloop
  endfacet
  facet normal -1.000000e+000 0.000000e+000 0.000000e+000
    outer loop
      vertex   -6.654800e+001 3.911600e+001 -3.175000e+000
      vertex   -6.654800e+001 2.336800e+001 0.000000e+000
      vertex   -6.654800e+001 3.911600e+001 0.000000e+000
    endloop
  endfacet
  facet normal -1.000000e+000 0.000000e+000 0.000000e+000
    outer loop
      vertex   -6.654800e+001 3.911600e+001 -3.175000e+000
      vertex   -6.654800e+001 0.000000e+000 -3.175000e+000
      vertex   -6.654800e+001 2.336800e+001 0.000000e+000
    endloop
  endfacet
  facet normal -1.000000e+000 0.000000e+000 -0.000000e+000
    outer loop
      vertex   -6.654800e+001 1.574800e+001 8.890000e+000
      vertex   -6.654800e+001 2.336800e+001 8.890000e+000
      vertex   -6.654800e+001 1.574800e+001 0.000000e+000
    endloop
  endfacet
  facet normal -1.000000e+000 0.000000e+000 0.000000e+000
    outer loop
      vertex   -6.654800e+001 1.574800e+001 0.000000e+000
      vertex   -6.654800e+001 2.336800e+001 8.890000e+000
      vertex   -6.654800e+001 2.336800e+001 0.000000e+000
    endloop
  endfacet
  facet normal 0.000000e+000 -0.000000e+000 -1.000000e+000
    outer loop
      vertex   -6.654800e+001 3.911600e+001 -3.175000e+000
      vertex   -3.327400e+001 3.911600e+001 -3.175000e+000
      vertex   -6.654800e+001 0.000000e+000 -3.175000e+000
    endloop
  endfacet
  facet normal 0.000000e+000 0.000000e+000 -1.000000e+000
    outer loop
      vertex   -6.654800e+001 0.000000e+000 -3.175000e+000
      vertex   -3.327400e+001 3.911600e+001 -3.175000e+000
      vertex   -3.327400e+001 0.000000e+000 -3.175000e+000
    endloop
  endfacet
  facet normal 0.000000e+000 0.000000e+000 -1.000000e+000
    outer loop
      vertex   -3.327400e+001 0.000000e+000 -3.175000e+000
      vertex   -3.327400e+001 3.911600e+001 -3.175000e+000
      vertex   0.000000e+000 3.911600e+001 -3.175000e+000
    endloop
  endfacet
  facet normal 0.000000e+000 0.000000e+000 -1.000000e+000
    outer loop
      vertex   0.000000e+000 0.000000e+000 -3.175000e+000
      vertex   -3.327400e+001 0.000000e+000 -3.175000e+000
      vertex   0.000000e+000 3.911600e+001 -3.175000e+000
    endloop
  endfacet
endsolid
